<?xml version="1.0" encoding="UTF-8"?>
<!DOCTYPE svg PUBLIC "-//W3C//DTD SVG 1.1//EN" "http://www.w3.org/Graphics/SVG/1.1/DTD/svg11.dtd">
<!-- Creator: CorelDRAW X7 -->
<svg xmlns="http://www.w3.org/2000/svg" xml:space="preserve" width="53.3058mm" height="36.3822mm" version="1.1" style="shape-rendering:geometricPrecision; text-rendering:geometricPrecision; image-rendering:optimizeQuality; fill-rule:evenodd; clip-rule:evenodd"
viewBox="0 0 5331 3638"
 xmlns:xlink="http://www.w3.org/1999/xlink">
 <defs>
  <style type="text/css">
   <![CDATA[
    .fil0 {fill:#2B2A29;fill-rule:nonzero}
   ]]>
  </style>
 </defs>
 <g id="Layer_x0020_1">
  <metadata id="CorelCorpID_0Corel-Layer"/>
  <path class="fil0" d="M152 2066c13,-12 25,-19 38,-19 17,0 26,11 26,32l0 6c-39,89 -69,201 -92,336 -24,135 -35,264 -35,387 0,84 6,152 19,203 25,-13 48,-33 69,-60 22,-28 40,-58 54,-89 15,-32 30,-59 45,-83 15,-23 32,-34 54,-34 21,0 38,12 50,38 5,46 18,98 42,155 23,57 50,111 82,161 32,51 69,95 111,130 42,36 86,54 133,54 38,0 75,-13 111,-41 36,-27 69,-62 98,-104 30,-43 53,-90 70,-143 17,-53 25,-105 25,-155 0,-127 -28,-249 -85,-365 -57,-116 -116,-229 -175,-339l0 -6c0,-26 7,-38 19,-38 13,0 24,4 32,12 63,102 132,217 206,346 74,129 111,259 111,390 0,93 -15,174 -44,244 -30,69 -66,126 -108,171 -42,44 -88,77 -136,98 -49,21 -92,32 -130,32 -85,0 -168,-36 -251,-108 -82,-72 -147,-175 -193,-311 -85,106 -154,159 -209,159 -59,0 -89,-64 -89,-190 0,-64 2,-133 6,-209 5,-77 12,-155 23,-235 10,-80 25,-156 44,-228 19,-72 45,-138 79,-197zm938 748c-4,-4 -6,-12 -6,-25 0,-21 10,-32 32,-32 16,0 38,7 63,19 25,13 55,19 89,19 33,0 72,-5 114,-16 42,-10 86,-22 133,-34 63,-119 135,-218 215,-298 81,-81 161,-121 241,-121 26,0 53,9 83,26 29,16 44,44 44,82 0,84 -52,158 -155,222 -104,63 -223,118 -358,165 -26,38 -38,80 -38,126 0,85 59,127 177,127 63,0 130,-9 200,-28 69,-19 119,-33 149,-42l253 -88 7 0c21,0 31,10 31,31 0,17 -26,38 -79,64 -53,25 -114,49 -184,73 -70,23 -139,43 -209,60 -70,17 -124,25 -162,25 -109,0 -186,-16 -228,-47 -42,-32 -63,-77 -63,-137 0,-21 2,-42 6,-63 4,-21 11,-44 19,-70 -63,13 -120,19 -171,19 -80,0 -148,-19 -203,-57zm761 -310c-55,42 -116,103 -184,183l120 -57c55,-38 90,-66 105,-85 15,-19 41,-52 79,-98l-6 0c-4,0 -6,-1 -6,-4 0,-2 -3,-3 -7,-3 -25,0 -59,21 -101,64zm139 -45l-6 -6c4,4 6,6 6,6zm457 362c-22,0 -32,-11 -32,-32 0,-25 22,-43 66,-54 45,-11 78,-24 99,-41l38 -38c-38,-190 -66,-386 -83,-587 -17,-200 -25,-381 -25,-541 0,-34 0,-66 0,-96 0,-29 2,-59 6,-88 0,-34 2,-104 7,-209 4,-106 10,-219 19,-340 8,-120 21,-234 38,-342 17,-108 40,-183 69,-225 30,-38 65,-85 105,-142 40,-57 73,-86 98,-86 30,0 69,23 118,70 48,46 87,84 117,114 76,101 134,230 174,386 40,157 60,298 60,425 0,144 -18,289 -54,434 -35,146 -82,290 -139,431 -57,142 -123,280 -196,415 -74,136 -149,267 -226,393 39,212 102,408 191,590 33,63 74,120 120,171 47,51 93,106 140,165l0 13c0,21 -9,31 -26,31 -13,0 -34,-13 -63,-41 -30,-27 -59,-60 -89,-98 -30,-38 -58,-77 -86,-117 -27,-41 -47,-71 -60,-92 -46,-68 -85,-149 -117,-244 -32,-95 -60,-200 -86,-314l-12 13c-21,16 -47,29 -76,38 -30,8 -62,21 -95,38zm183 -1465c-4,47 -6,95 -6,146 0,51 0,102 0,152 0,148 4,301 13,460 8,158 27,314 57,466 59,-114 119,-237 180,-368 62,-131 118,-266 168,-406 51,-139 92,-280 124,-421 32,-142 48,-280 48,-415 0,-157 -28,-304 -83,-444 -55,-139 -144,-266 -266,-380 -59,84 -105,176 -136,276 -32,99 -54,201 -67,307 -13,106 -21,212 -25,320 -4,108 -7,210 -7,307zm450 1021c0,-4 -1,-7 -3,-10 -2,-2 -3,-7 -3,-15 0,-17 13,-26 38,-26 9,0 15,2 19,7 64,71 114,145 152,221 38,76 68,157 89,241 13,-34 34,-73 63,-117 30,-44 63,-87 99,-127 36,-40 74,-74 114,-101 40,-28 79,-41 117,-41 51,0 88,15 111,47 23,32 40,71 51,117 10,47 15,95 15,146 0,51 5,95 13,133 89,-67 157,-119 203,-155 46,-36 84,-54 114,-54 21,0 41,29 60,86 19,57 29,151 29,282 0,17 -11,25 -32,25 -13,0 -23,-13 -32,-38 -8,-25 -13,-55 -15,-89 -3,-33 -6,-67 -10,-101 -4,-34 -10,-61 -19,-82 -21,16 -47,41 -79,72 -32,32 -56,54 -73,67 -47,42 -82,71 -108,86 -25,14 -48,22 -70,22 -33,0 -54,-19 -63,-57 -8,-38 -15,-82 -19,-130 -4,-49 -10,-96 -19,-143 -8,-46 -25,-80 -51,-101 -59,4 -108,28 -149,73 -40,44 -75,97 -104,158 -30,61 -54,125 -73,190 -19,66 -33,122 -41,168l0 19 -13 0c-13,17 -27,26 -44,26 -30,0 -47,-15 -51,-45l0 -13c0,-139 -12,-270 -35,-392 -23,-123 -83,-239 -181,-349zm2200 152c0,21 -9,32 -25,32 -22,0 -45,-16 -70,-48 -26,-32 -61,-47 -108,-47 -46,0 -96,10 -149,31 -53,21 -102,49 -149,83 -46,34 -84,70 -114,111 -30,40 -44,79 -44,117 0,25 6,40 19,44 12,5 27,7 44,7 42,0 84,-7 124,-19 40,-13 77,-24 111,-32 88,-25 160,-38 215,-38 55,0 92,12 111,35 19,23 31,54 35,92 4,38 7,80 9,126 3,47 14,91 35,134 4,4 7,10 7,19 0,25 -9,38 -26,38 -25,0 -43,-18 -54,-54 -10,-36 -19,-76 -25,-121 -6,-44 -16,-84 -29,-120 -12,-36 -33,-54 -63,-54 -29,0 -63,6 -101,19 -38,13 -78,25 -121,38 -42,13 -85,25 -130,38 -44,13 -85,19 -123,19 -43,0 -81,-11 -114,-32 -34,-21 -51,-63 -51,-126 0,-55 18,-109 54,-162 36,-53 81,-99 136,-140 55,-40 116,-72 184,-98 67,-25 131,-38 190,-38 47,0 90,11 130,32 40,21 71,57 92,108l0 6z"/>
 </g>
</svg>
